.
..............................Site Info...........................

 -   http://www.scenetime.com  *_*   

SceneTime is going to Close sign up on march/1, hurry up! get in before the doors are closed.

     We care to share . Join us on  http://www.scenetime.com 

    Be the first to get new release at  http://www.scenetime.com

        Seed back for speed


...................................NFO:.................................................[center][IMG]http://lookpic.com/O/i2/518/oJACQ73V.jpeg[/IMG][/center]
[center][color=green]Justice League Doom DVDRip x264 AC3 - konscious.mkv[/color][/center]


[img]http://lookpic.com/i/595/WZpBR7F1.png[/img]
[nfo][font=Courier New]


Complete name                    : Justice League Doom DVDRip x264 AC3 - konscious.mkv
Format                           : Matroska
Format version                   : Version 2
File size                        : 1.40 GiB
Duration                         : 1h 23mn
Overall bit rate                 : 2 397 Kbps
Encoded date                     : UTC 2012-03-01 04:38:04
Writing application              : mkvmerge v5.2.1 ('A Far Off Place') 
Writing library                  : libebml v1.2.3 + libmatroska v1.3.0
Source                           : DVD5 NTSC
Sample                           : Yes
Encoder                          : [color=darkturquoise]konscious[/color]

[url]http://www.imdb.com/title/tt2027128/[/url]

Ratings: Ratings: 7.1/10 from 1,123 users     
Genre:   Animation  

[color=green]Video[/color]

Format                           : AVC
Format/Info                      : Advanced Video Codec
Format profile                   : High@L4.1
Format settings, CABAC           : Yes
Format settings, ReFrames        : 9 frames
Codec ID                         : V_MPEG4/ISO/AVC
Duration                         : 1h 23mn
Bit rate                         : 2 041 Kbps
Width                            : 720 pixels
Height                           : 400 pixels
Display aspect ratio             : 16:9
Frame rate                       : 23.976 fps
Color space                      : YUV
Chroma subsampling               : 4:2:0
Bit depth                        : 8 bits
Scan type                        : Progressive
Bits/(Pixel*Frame)               : 0.296
Stream size                      : 1.15 GiB (82%)
Writing library                  : x264 core 120 r2164 da19765

[color=green]Audio[/color]

Format                           : AC-3
Format/Info                      : Audio Coding 3
Mode extension                   : CM (complete main)
Codec ID                         : A_AC3
Duration                         : 1h 23mn
Bit rate mode                    : Constant
Bit rate                         : 384 Kbps
Channel(s)                       : 6 channels
Channel positions                : Front: L C R, Side: L R, LFE
Sampling rate                    : 48.0 KHz
Bit depth                        : 16 bits
Compression mode                 : Lossy
Stream size                      : 229 MiB (16%)





[cast]
Kevin Conroy 		... 	Batman (voice)
Tim Daly 		... 	Superman (voice)
Susan Eisenberg 	... 	Wonder Woman (voice)
Nathan Fillion 	 	... 	Green Lantern (voice) 

[plot]
Vandal Savage steals confidential files Batman has compiled on the 
members of the Justice League, and learns all their weaknesses. 

[note]
[color=red]
Dont forget to thank the uploader/add rep

Greets to: DiVERSiTY RG, warhawk, tinners117, 
and all who make p2p what it is today.[/color]




[screens]
[center]
[IMG]http://lookpic.com/O/i2/16/pT7Dpk4b.png[/IMG]
[IMG]http://lookpic.com/O/i2/277/Qkj9kohN.png[/IMG]
[IMG]http://lookpic.com/O/i2/932/jLbNOSKv.png[/IMG]
[IMG]http://lookpic.com/O/i2/1684/n4iAJxPm.png[/IMG]

[/center]



[trailer]


[/nfo][/font]